<svg version="1.1" id="Layer_1" xmlns="http://www.w3.org/2000/svg" xmlns:xlink="http://www.w3.org/1999/xlink" x="0px" y="0px"
	 width="100%" viewBox="0 0 200 200" enable-background="new 0 0 200 200" xml:space="preserve">
<path fill="#FDFDFD" opacity="1.000000" stroke="none" 
	d="
M87.000000,201.000000 
	C58.000000,201.000000 29.500004,201.000000 1.000004,201.000000 
	C1.000003,134.333344 1.000003,67.666679 1.000001,1.000013 
	C67.666656,1.000009 134.333313,1.000009 200.999969,1.000004 
	C200.999985,67.666649 200.999985,134.333298 201.000000,200.999969 
	C163.166672,201.000000 125.333336,201.000000 87.000000,201.000000 
M120.074875,55.425179 
	C112.561584,47.907757 105.048294,40.390339 96.662125,31.999556 
	C96.662125,39.291061 96.662125,45.470890 96.662125,52.010597 
	C86.450218,52.010597 76.853508,52.010597 66.814911,52.010597 
	C66.814911,68.323944 66.810173,84.260735 66.832230,100.197487 
	C66.833115,100.836830 66.868629,101.698471 67.257462,102.081734 
	C73.555328,108.289406 79.913055,114.436348 86.922913,121.243454 
	C86.922913,104.307175 86.922913,88.266144 86.922913,72.146454 
	C96.963684,72.146454 106.558403,72.146454 116.602654,72.146454 
	C116.602654,80.802940 116.582214,89.250549 116.622025,97.697861 
	C116.628967,99.170708 116.318810,101.195847 117.124092,102.026535 
	C123.261177,108.357178 129.638901,114.454521 136.531631,121.201973 
	C136.531631,111.668007 136.567230,103.041512 136.520859,94.415451 
	C136.480652,86.937065 138.351379,78.628311 135.692032,72.214714 
	C133.031647,65.798584 125.801704,61.277195 120.074875,55.425179 
M140.438522,157.644348 
	C140.438522,155.774307 140.438522,153.904282 140.438522,152.034241 
	C143.834076,155.862808 146.086182,159.847626 148.327774,163.838333 
	C151.836670,170.085205 152.678284,170.424194 159.903381,168.586914 
	C159.903381,157.307266 159.903381,146.080231 159.903381,135.103973 
	C156.925003,135.103973 154.347443,135.103973 151.335663,135.103973 
	C151.335663,141.015564 151.335663,146.565796 151.335663,152.116013 
	C148.361496,148.408752 146.176514,144.522385 144.000198,140.631165 
	C140.156219,133.758209 139.846252,133.621979 132.112473,135.403961 
	C132.112473,146.677750 132.112473,157.918503 132.112473,168.911194 
	C135.036407,168.911194 137.608292,168.911194 140.438492,168.911194 
	C140.438492,165.226654 140.438492,161.910004 140.438522,157.644348 
M39.702915,158.448578 
	C39.702915,150.674271 39.702915,142.899963 39.702915,135.049316 
	C36.442642,135.049316 33.725887,135.049316 30.645859,135.049316 
	C30.645859,139.129089 30.645859,142.894424 30.645859,146.759094 
	C26.898443,146.759094 23.532495,146.759094 19.808292,146.759094 
	C19.808292,142.659912 19.808292,138.891205 19.808292,134.990112 
	C16.723848,134.990112 14.009258,134.990112 11.205639,134.990112 
	C11.205639,146.484222 11.205639,157.715240 11.205639,169.027466 
	C14.186792,169.027466 16.946945,169.027466 20.155167,169.027466 
	C20.155167,164.346817 20.155167,159.937012 20.155167,155.636932 
	C23.867529,155.636932 27.116650,155.636932 30.926826,155.636932 
	C30.926826,160.325165 30.926826,164.703217 30.926826,169.042572 
	C34.104763,169.042572 36.709229,169.042572 39.702908,169.042572 
	C39.702908,165.668564 39.702908,162.546906 39.702915,158.448578 
M94.532104,169.314362 
	C95.935371,169.202301 97.338638,169.090256 98.849968,168.969574 
	C98.849968,164.317047 98.872391,160.160477 98.842453,156.004303 
	C98.820778,152.995605 98.992958,149.977341 103.016617,150.046951 
	C107.137428,150.118256 106.912468,153.358658 106.928978,156.225739 
	C106.953506,160.484863 106.935326,164.744247 106.935326,168.939285 
	C110.088005,168.939285 112.639763,168.939285 115.217216,168.939285 
	C115.217216,162.914413 115.434067,157.253555 115.154961,151.617264 
	C114.886925,146.204483 111.477592,142.417953 106.512802,142.359848 
	C101.208061,142.297760 95.894012,143.031113 90.285683,143.438934 
	C90.285683,151.302856 90.166496,158.938950 90.436226,166.561310 
	C90.470024,167.516373 92.556938,168.398788 94.532104,169.314362 
M174.398193,154.431305 
	C174.398193,150.687454 174.398193,146.943604 174.398193,143.222290 
	C171.284302,143.222290 168.859360,143.222290 166.011032,143.222290 
	C166.011032,145.419617 166.001144,147.375626 166.013153,149.331497 
	C166.036606,153.150558 165.822067,156.991898 166.160599,160.783432 
	C166.690430,166.717667 170.771194,170.279007 176.445282,169.975311 
	C181.139175,169.724060 185.820312,169.234848 190.765686,168.829880 
	C190.765686,160.461624 190.765686,151.908890 190.765686,143.265793 
	C188.032455,143.265793 185.497543,143.265793 182.600327,143.265793 
	C182.600327,148.351074 182.914673,153.183823 182.420578,157.932449 
	C182.259445,159.480896 179.990585,160.810013 178.685715,162.239426 
	C177.286118,160.949539 175.721313,159.788788 174.564560,158.309052 
	C174.070526,157.677078 174.427795,156.379608 174.398193,154.431305 
M54.223610,153.296661 
	C55.992729,152.234329 57.761852,151.171997 59.530972,150.109665 
	C60.427864,151.872620 61.942909,153.582809 62.098858,155.409027 
	C62.476749,159.834396 62.221653,164.313828 62.221653,168.905655 
	C65.260437,168.905655 67.943817,168.905655 70.740746,168.905655 
	C70.740746,163.190720 70.933716,157.867203 70.689896,152.563766 
	C70.410812,146.493484 67.047157,142.429779 61.837742,142.360382 
	C56.535816,142.289749 51.222904,143.043869 46.003647,143.430267 
	C46.003647,152.088974 46.003647,160.512650 46.003647,168.955353 
	C48.800392,168.955353 51.347607,168.955353 54.132130,168.955353 
	C54.132130,163.796967 54.132130,158.985901 54.223610,153.296661 
M76.060394,144.809174 
	C76.060394,152.872467 76.060394,160.935760 76.060394,168.998444 
	C79.233505,168.998444 81.801514,168.998444 84.369583,168.998444 
	C84.369583,160.236008 84.369583,151.815735 84.369583,142.616302 
	C81.411720,143.069962 78.785240,143.472809 76.060394,144.809174 
M81.950607,139.768845 
	C83.132957,137.806580 84.990654,135.923965 85.235199,133.851074 
	C85.373863,132.675751 83.089737,130.494217 81.506172,129.988159 
	C78.343178,128.977341 75.673462,130.642624 75.224182,133.907944 
	C74.659042,138.015381 77.092514,140.012772 81.950607,139.768845 
z"/>
<path fill="#060606" opacity="1.000000" stroke="none" 
	d="
M120.324844,55.675217 
	C125.801704,61.277195 133.031647,65.798584 135.692032,72.214714 
	C138.351379,78.628311 136.480652,86.937065 136.520859,94.415451 
	C136.567230,103.041512 136.531631,111.668007 136.531631,121.201973 
	C129.638901,114.454521 123.261177,108.357178 117.124092,102.026535 
	C116.318810,101.195847 116.628967,99.170708 116.622025,97.697861 
	C116.582214,89.250549 116.602654,80.802940 116.602654,72.146454 
	C106.558403,72.146454 96.963684,72.146454 86.922913,72.146454 
	C86.922913,88.266144 86.922913,104.307175 86.922913,121.243454 
	C79.913055,114.436348 73.555328,108.289406 67.257462,102.081734 
	C66.868629,101.698471 66.833115,100.836830 66.832230,100.197487 
	C66.810173,84.260735 66.814911,68.323944 66.814911,52.010597 
	C76.853508,52.010597 86.450218,52.010597 96.662125,52.010597 
	C96.662125,45.470890 96.662125,39.291061 96.662125,31.999556 
	C105.048294,40.390339 112.561584,47.907757 120.324844,55.675217 
z"/>
<path fill="#030303" opacity="1.000000" stroke="none" 
	d="
M140.438507,158.118866 
	C140.438492,161.910004 140.438492,165.226654 140.438492,168.911194 
	C137.608292,168.911194 135.036407,168.911194 132.112473,168.911194 
	C132.112473,157.918503 132.112473,146.677750 132.112473,135.403961 
	C139.846252,133.621979 140.156219,133.758209 144.000198,140.631165 
	C146.176514,144.522385 148.361496,148.408752 151.335663,152.116013 
	C151.335663,146.565796 151.335663,141.015564 151.335663,135.103973 
	C154.347443,135.103973 156.925003,135.103973 159.903381,135.103973 
	C159.903381,146.080231 159.903381,157.307266 159.903381,168.586914 
	C152.678284,170.424194 151.836670,170.085205 148.327774,163.838333 
	C146.086182,159.847626 143.834076,155.862808 140.438522,152.034241 
	C140.438522,153.904282 140.438522,155.774307 140.438507,158.118866 
z"/>
<path fill="#080808" opacity="1.000000" stroke="none" 
	d="
M39.702911,158.936920 
	C39.702908,162.546906 39.702908,165.668564 39.702908,169.042572 
	C36.709229,169.042572 34.104763,169.042572 30.926826,169.042572 
	C30.926826,164.703217 30.926826,160.325165 30.926826,155.636932 
	C27.116650,155.636932 23.867529,155.636932 20.155167,155.636932 
	C20.155167,159.937012 20.155167,164.346817 20.155167,169.027466 
	C16.946945,169.027466 14.186792,169.027466 11.205639,169.027466 
	C11.205639,157.715240 11.205639,146.484222 11.205639,134.990112 
	C14.009258,134.990112 16.723848,134.990112 19.808292,134.990112 
	C19.808292,138.891205 19.808292,142.659912 19.808292,146.759094 
	C23.532495,146.759094 26.898443,146.759094 30.645859,146.759094 
	C30.645859,142.894424 30.645859,139.129089 30.645859,135.049316 
	C33.725887,135.049316 36.442642,135.049316 39.702915,135.049316 
	C39.702915,142.899963 39.702915,150.674271 39.702911,158.936920 
z"/>
<path fill="#0C0C0C" opacity="1.000000" stroke="none" 
	d="
M94.112335,169.314606 
	C92.556938,168.398788 90.470024,167.516373 90.436226,166.561310 
	C90.166496,158.938950 90.285683,151.302856 90.285683,143.438934 
	C95.894012,143.031113 101.208061,142.297760 106.512802,142.359848 
	C111.477592,142.417953 114.886925,146.204483 115.154961,151.617264 
	C115.434067,157.253555 115.217216,162.914413 115.217216,168.939285 
	C112.639763,168.939285 110.088005,168.939285 106.935326,168.939285 
	C106.935326,164.744247 106.953506,160.484863 106.928978,156.225739 
	C106.912468,153.358658 107.137428,150.118256 103.016617,150.046951 
	C98.992958,149.977341 98.820778,152.995605 98.842453,156.004303 
	C98.872391,160.160477 98.849968,164.317047 98.849968,168.969574 
	C97.338638,169.090256 95.935371,169.202301 94.112335,169.314606 
z"/>
<path fill="#060606" opacity="1.000000" stroke="none" 
	d="
M174.398209,154.907928 
	C174.427795,156.379608 174.070526,157.677078 174.564560,158.309052 
	C175.721313,159.788788 177.286118,160.949539 178.685715,162.239426 
	C179.990585,160.810013 182.259445,159.480896 182.420578,157.932449 
	C182.914673,153.183823 182.600327,148.351074 182.600327,143.265793 
	C185.497543,143.265793 188.032455,143.265793 190.765686,143.265793 
	C190.765686,151.908890 190.765686,160.461624 190.765686,168.829880 
	C185.820312,169.234848 181.139175,169.724060 176.445282,169.975311 
	C170.771194,170.279007 166.690430,166.717667 166.160599,160.783432 
	C165.822067,156.991898 166.036606,153.150558 166.013153,149.331497 
	C166.001144,147.375626 166.011032,145.419617 166.011032,143.222290 
	C168.859360,143.222290 171.284302,143.222290 174.398193,143.222290 
	C174.398193,146.943604 174.398193,150.687454 174.398209,154.907928 
z"/>
<path fill="#0A0A0A" opacity="1.000000" stroke="none" 
	d="
M54.177872,153.735748 
	C54.132130,158.985901 54.132130,163.796967 54.132130,168.955353 
	C51.347607,168.955353 48.800392,168.955353 46.003647,168.955353 
	C46.003647,160.512650 46.003647,152.088974 46.003647,143.430267 
	C51.222904,143.043869 56.535816,142.289749 61.837742,142.360382 
	C67.047157,142.429779 70.410812,146.493484 70.689896,152.563766 
	C70.933716,157.867203 70.740746,163.190720 70.740746,168.905655 
	C67.943817,168.905655 65.260437,168.905655 62.221653,168.905655 
	C62.221653,164.313828 62.476749,159.834396 62.098858,155.409027 
	C61.942909,153.582809 60.427864,151.872620 59.530972,150.109665 
	C57.761852,151.171997 55.992729,152.234329 54.177872,153.735748 
z"/>
<path fill="#141414" opacity="1.000000" stroke="none" 
	d="
M76.109573,144.342407 
	C78.785240,143.472809 81.411720,143.069962 84.369583,142.616302 
	C84.369583,151.815735 84.369583,160.236008 84.369583,168.998444 
	C81.801514,168.998444 79.233505,168.998444 76.060394,168.998444 
	C76.060394,160.935760 76.060394,152.872467 76.109573,144.342407 
z"/>
<path fill="#111111" opacity="1.000000" stroke="none" 
	d="
M81.573212,139.855103 
	C77.092514,140.012772 74.659042,138.015381 75.224182,133.907944 
	C75.673462,130.642624 78.343178,128.977341 81.506172,129.988159 
	C83.089737,130.494217 85.373863,132.675751 85.235199,133.851074 
	C84.990654,135.923965 83.132957,137.806580 81.573212,139.855103 
z"/>
</svg>