<svg xmlns="http://www.w3.org/2000/svg" width="200" height="200" viewBox="0 0 200 200">
  <g id="logo" transform="translate(-1 -1)">
    <path id="Path_1" data-name="Path 1" d="M87,201H1Q1,101,1,1H201q0,100,0,200H87M120.075,55.425,96.662,32V52.011H66.815c0,16.313,0,32.25.017,48.187a2.931,2.931,0,0,0,.425,1.884c6.3,6.208,12.656,12.355,19.665,19.162v-49.1H116.6c0,8.656-.02,17.1.019,25.551.007,1.473-.3,3.5.5,4.329,6.137,6.331,12.515,12.428,19.408,19.175,0-9.534.036-18.16-.011-26.787-.04-7.478,1.831-15.787-.829-22.2s-9.89-10.938-15.617-16.79m20.364,102.219v-5.61a64.174,64.174,0,0,1,7.889,11.8c3.509,6.247,4.351,6.586,11.576,4.749V135.1h-8.568v17.012A80.372,80.372,0,0,1,144,140.631c-3.844-6.873-4.154-7.009-11.888-5.227v33.507h8.326c0-3.685,0-7,0-11.267m-100.736.8v-23.4H30.646v11.71H19.808V134.99h-8.6v34.037h8.95V155.637H30.927v13.406H39.7c0-3.374,0-6.5,0-10.594m54.829,10.866,4.318-.345c0-4.653.022-8.809-.008-12.965-.022-3.009.151-6.027,4.174-5.957,4.121.071,3.9,3.312,3.912,6.179.025,4.259.006,8.519.006,12.714h8.282c0-6.025.217-11.686-.062-17.322-.268-5.413-3.677-9.2-8.642-9.257-5.3-.062-10.619.671-16.227,1.079,0,7.864-.119,15.5.151,23.122.034.955,2.121,1.837,4.1,2.753M174.4,154.431V143.222h-8.387c0,2.2-.01,4.153,0,6.109.023,3.819-.191,7.66.147,11.452.53,5.934,4.611,9.5,10.285,9.192,4.694-.251,9.375-.74,14.32-1.145V143.266H182.6c0,5.085.314,9.918-.18,14.667-.161,1.548-2.43,2.878-3.735,4.307a35.5,35.5,0,0,1-4.121-3.93c-.494-.632-.137-1.929-.166-3.878M54.224,153.3l5.307-3.187c.9,1.763,2.412,3.473,2.568,5.3.378,4.425.123,8.9.123,13.5h8.519c0-5.715.193-11.038-.051-16.342-.279-6.07-3.643-10.134-8.852-10.2-5.3-.071-10.615.683-15.834,1.07v25.525h8.128c0-5.158,0-9.969.091-15.659m21.837-8.487V169H84.37V142.616a27.136,27.136,0,0,0-8.309,2.193m5.89-5.04c1.182-1.962,3.04-3.845,3.285-5.918.139-1.175-2.145-3.357-3.729-3.863a4.558,4.558,0,0,0-6.282,3.92C74.659,138.015,77.093,140.013,81.951,139.769Z" fill="#fdfdfd"/>
    <path id="Path_2" data-name="Path 2" d="M120.325,55.675c5.477,5.6,12.707,10.123,15.367,16.539s.789,14.722.829,22.2c.046,8.626.011,17.253.011,26.787-6.893-6.747-13.27-12.845-19.408-19.175-.805-.831-.5-2.856-.5-4.329-.04-8.447-.019-16.895-.019-25.551H86.923v49.1c-7.01-6.807-13.368-12.954-19.665-19.162a2.931,2.931,0,0,1-.425-1.884c-.022-15.937-.017-31.874-.017-48.187H96.662V32Z" fill="#ffc200"/>
    <path id="Path_3" data-name="Path 3" d="M140.439,158.119c0,3.791,0,7.108,0,10.792h-8.326V135.4c7.734-1.782,8.044-1.646,11.888,5.227a80.372,80.372,0,0,0,7.335,11.485V135.1H159.9v33.483c-7.225,1.837-8.067,1.5-11.576-4.749a64.174,64.174,0,0,0-7.889-11.8C140.439,153.9,140.439,155.774,140.439,158.119Z" fill="#ffc200"/>
    <path id="Path_4" data-name="Path 4" d="M39.7,158.937c0,3.61,0,6.732,0,10.106H30.927V155.637H20.155v13.391h-8.95V134.99h8.6v11.769H30.646v-11.71H39.7C39.7,142.9,39.7,150.674,39.7,158.937Z" fill="#ffc200"/>
    <path id="Path_5" data-name="Path 5" d="M94.112,169.315c-1.555-.916-3.642-1.8-3.676-2.753-.27-7.622-.151-15.258-.151-23.122,5.608-.408,10.922-1.141,16.227-1.079,4.965.058,8.374,3.845,8.642,9.257.279,5.636.062,11.3.062,17.322h-8.282c0-4.2.018-8.454-.006-12.714-.017-2.867.208-6.107-3.912-6.179-4.024-.07-4.2,2.949-4.174,5.957.03,4.156.008,8.313.008,12.965C97.339,169.09,95.935,169.2,94.112,169.315Z" fill="#ffc200"/>
    <path id="Path_6" data-name="Path 6" d="M174.4,154.908c.03,1.472-.328,2.769.166,3.4a35.5,35.5,0,0,0,4.121,3.93c1.3-1.429,3.574-2.759,3.735-4.307.494-4.749.18-9.581.18-14.667h8.165V168.83c-4.945.4-9.627.894-14.32,1.145-5.674.3-9.755-3.258-10.285-9.192-.339-3.792-.124-7.633-.147-11.452-.012-1.956,0-3.912,0-6.109H174.4C174.4,146.944,174.4,150.687,174.4,154.908Z" fill="#ffc200"/>
    <path id="Path_7" data-name="Path 7" d="M54.178,153.736c-.046,5.25-.046,10.061-.046,15.22H46V143.43c5.219-.386,10.532-1.141,15.834-1.07,5.209.069,8.573,4.133,8.852,10.2.244,5.3.051,10.627.051,16.342H62.222c0-4.592.255-9.071-.123-13.5-.156-1.826-1.671-3.536-2.568-5.3A41.26,41.26,0,0,0,54.178,153.736Z" fill="#ffc200"/>
    <path id="Path_8" data-name="Path 8" d="M76.11,144.342a51.132,51.132,0,0,1,8.26-1.726V169H76.06C76.06,160.936,76.06,152.872,76.11,144.342Z" fill="#ffc200"/>
    <path id="Path_9" data-name="Path 9" d="M81.573,139.855c-4.481.158-6.914-1.84-6.349-5.947a4.558,4.558,0,0,1,6.282-3.92c1.584.506,3.868,2.688,3.729,3.863C84.991,135.924,83.133,137.807,81.573,139.855Z" fill="#ffc200"/>
  </g>
</svg>
